<svg version="1" xmlns="http://www.w3.org/2000/svg" width="682.667" height="682.667" viewBox="0 0 512.000000 512.000000"><path d="M337.5 68c-2.2.4-5.9 1-8.3 1.4-27.2 3.7-67 21.9-99.7 45.5-4.9 3.6-9.2 6.8-9.5 7.1-.3.3-3.2 2.7-6.5 5.5-9.5 7.9-11.8 9.9-14.1 12.1-1.2 1.1-3.3 3-4.8 4.1-1.4 1.2-5.6 4.8-9.3 8.1-3.8 3.3-7.7 6.9-8.9 7.9-2.4 2.1-16 14.3-21.2 19-4.3 3.9-1.7 5.8-27.2-19.3-10.7-10.6-23.4-22.9-28.1-27.5l-8.5-8.4H50.7c-22.4 0-40.7.2-40.7.5 0 .2 1.9 2.2 4.3 4.3 2.3 2.2 9.9 9.3 16.9 15.9 7 6.6 13.7 12.9 15 14 1.3 1.1 8.5 7.9 16.2 15.1C70 180.6 77.1 187.2 78 188c1 .8 6.2 5.6 11.6 10.6 5.5 5 12.7 11.5 16.1 14.4 3.5 2.8 6.3 5.3 6.3 5.5 0 .1-2.4 2.1-5.2 4.3-2.9 2.2-6.6 5.2-8.3 6.7-3.9 3.5-17.5 15.7-18.9 17-.6.6-6.9 6.4-14.1 13-7.1 6.6-15 13.9-17.5 16.2-2.5 2.3-5.7 5.2-7.1 6.5-6.6 6-23.8 21.9-29.3 27l-6.1 5.7 36.7.1h36.6l4-3.8c16.2-15 25.7-24 30.4-28.5 21.9-20.7 32.2-30.2 32.9-30.2.8 0 11.2 9.9 51.2 48.7l14.2 13.7 41.3.1c22.6 0 41.2-.2 41.2-.5s-1.1-1.6-2.4-2.8c-4-3.7-27.7-26-31.6-29.7-3.2-3-21-19.7-30.5-28.5-1.7-1.7-7.2-6.6-12-11-8.7-7.9-10.6-9.7-19.5-17.9-2.5-2.2-6.1-5.5-8.1-7.2l-3.6-3.1 26.7-26.9c36.3-36.5 47.4-46.7 72-65.8 6.9-5.4 13.3-10.3 14.2-11.1.9-.7 8.5-5.9 16.9-11.5 17.5-11.6 41.6-23.9 53.6-27.3 8.8-2.5 10.2-3.1 7.5-3.5-4.5-.7-36.2-.8-39.7-.2z"/><path d="M348 102.2c-8.3 4.4-29.3 17.7-33.9 21.4-.9.7-4.5 3.4-8.1 6.1l-6.5 4.8-.3 90.3-.2 90.2h168.9l18.8-24.1c10.3-13.3 18.8-24.4 18.8-24.7 0-.4-33.1-.6-73.5-.7h-73.5l-.2-83.8c-.1-46.1-.3-84-.5-84.2-.2-.2-4.6 1.9-9.8 4.7zM15.9 361.2c-4.6 6-8.8 11.6-9.2 12.4C6 374.8 9.1 375 28 375h22v70h29v-11.3c.1-6.1.1-21.9.1-35V375h33.7l8.7-11.1c4.7-6.1 8.8-11.6 9.1-12.3.4-1-10.2-1.3-52.9-1.3l-53.3-.1-8.5 11zM141 397.6V445h90.9l9-11.6c5-6.4 8.9-11.9 8.7-12.3-.2-.3-18-.6-39.5-.6-26.4.1-39.2-.2-39.4-1-.2-.5-.3-3.4-.3-6.4l.1-5.4h58l7-8.9c3.9-4.9 7.6-9.8 8.4-10.8 1.3-1.9.7-1.9-27-1.9-15.6 0-32.5-.1-37.5-.1h-9.1v-5.5l.1-5.5h61.5l2.2-3.3c1.3-1.7 4.6-6.1 7.4-9.7 2.8-3.6 5.9-7.7 6.8-9.1l1.7-2.6h-54.5l-54.5-.1v47.4zM297 352.5c-11.3 2.8-19 6.8-25.9 13.5-8.5 8.3-12.6 17.7-13 29.7-.6 20.2 11.9 37.2 33.4 45.2 8.8 3.3 9.7 3.4 41 3.8l30 .4 9.2-12.1c5.1-6.6 8.7-12 8-12.1-.6-.1-16.9-.2-36.2-.3-40.1-.2-42.6-.6-49.9-8-11.7-11.7-6.2-30.5 10.5-35.9 4.2-1.4 9.8-1.7 31.8-1.7l26.6-.1 8.5-11.1c4.7-6.1 8.8-11.6 9.2-12.3.6-1-7-1.3-37-1.2-35.1 0-38.3.2-46.2 2.2zM391.9 350.9c-.1.3-.2 21.6-.3 47.3l-.2 46.8H421v-36.5l28-.1h28V445h14.5c13.1 0 14.5-.2 14.6-1.8.1-2.2.1-90.3 0-91.8-.1-.9-4.4-1.2-14.6-1.2l-14.5.1v33.5l-28-.1h-28v-33.4l-14.5-.1c-8 0-14.6.3-14.6.7z"/></svg>